<svg xmlns="http://www.w3.org/2000/svg" viewBox="0 0 21.1 19.8"><defs><style>.cls-1{fill:#c4bab1;}.cls-2{fill:#7ca3f7;stroke:#7ca3f7;}.cls-2,.cls-3,.cls-4,.cls-6,.cls-7,.cls-8,.cls-9{stroke-miterlimit:10;}.cls-3{fill:#9b8579;stroke:#9b8579;}.cls-4,.cls-6,.cls-8{fill:none;}.cls-4{stroke:#1c2538;stroke-width:0.5px;}.cls-5{fill:#1c2538;}.cls-6{stroke:#fff;}.cls-6,.cls-7,.cls-8,.cls-9{stroke-width:0.25px;}.cls-7{fill:#c7d7f9;stroke:#c7d7f9;}.cls-8,.cls-9{stroke:#000;}.cls-10{fill:#606778;}</style></defs><g id="Layer_6" data-name="Layer 6"><path class="cls-1" d="M20.38,17.72a6.61,6.61,0,0,1-1.57,1.46c-1.07.82-1.3.76-1.75,1.26-.85.94-.71,1.89-.86,1.89a2.81,2.81,0,0,1,.14-2.44,3.78,3.78,0,0,1,1-1.42c.86-.74,1.42-.6,2.3-1.32s1.09-1.58,1.25-1.54S21.07,16.73,20.38,17.72Z" transform="translate(-5.07 -6.74)"/></g><g id="Layer_4" data-name="Layer 4"><circle class="cls-2" cx="18.63" cy="2.86" r="1.96"/><circle class="cls-2" cx="17.71" cy="7.22" r="1.04"/><circle class="cls-2" cx="15.33" cy="5.25" r="0.44"/></g><g id="Layer_1" data-name="Layer 1"><circle class="cls-3" cx="6.5" cy="6.5" r="6"/><line class="cls-4" x1="0.84" y1="4.47" x2="12.15" y2="4.47"/><line class="cls-4" x1="11.25" y1="6.76" x2="12.15" y2="4.47"/><line class="cls-4" x1="0.84" y1="4.47" x2="1.74" y2="6.76"/><line class="cls-4" x1="6.49" y1="5.62" x2="6.49" y2="4.47"/><line class="cls-4" x1="11.25" y1="6.76" x2="6.49" y2="5.62"/><line class="cls-4" x1="1.74" y1="6.76" x2="6.49" y2="5.62"/><path class="cls-5" d="M16.33,11.35a1.77,1.77,0,0,0-.52,1c0,.14,0,.15,0,0s0-.13-.15-.1a4.8,4.8,0,0,0-.76-.11c-.43-.07-.87-.15-1.3-.25l-.74-.18c-.07,0-.6-.21-.54-.11v.51l.05-.08-.3.23A11.09,11.09,0,0,1,14,12.25h1.36c.07,0,.43,0,.35,0l-.23-.3,0,.09.05-.39c-.09.2-.65.07-.82.06l-1.12-.12a13.17,13.17,0,0,0-2.26-.18,13.9,13.9,0,0,0-2.1.49c-.32.07-.66.11-1,.16l-.53.11c-.18,0-.39.19-.57.17l.35.15a3.84,3.84,0,0,1-.45-1l-.43.75,4.13-.14-.13-1-3.26.73c-.63.14-.36,1.11.27,1l3.25-.72a.5.5,0,0,0-.13-1l-4.13.14a.51.51,0,0,0-.43.76c.22.5.39,1.4,1.09,1.36A7.7,7.7,0,0,0,8.44,13c.36-.06.72-.1,1.08-.17a8.28,8.28,0,0,1,2.4-.45c.82,0,1.63.16,2.44.25.6.06,1.34.21,1.84-.23a.65.65,0,0,0-.35-1.17,14.21,14.21,0,0,0-2.44,0c-.61,0-1.54-.17-1.95.38a.52.52,0,0,0,0,.51c.25.42.89.49,1.33.61.64.17,1.29.29,2,.4.46.07,1.2.33,1.63.08s.34-.84.67-1.18-.26-1.18-.71-.71Z" transform="translate(-5.07 -6.74)"/><line class="cls-6" x1="11.33" y1="4.82" x2="10.8" y2="6.19"/><line class="cls-6" x1="10.51" y1="5.3" x2="10.27" y2="5.93"/><path class="cls-7" d="M11.13,16.07A1.75,1.75,0,0,0,12,17.41a2.63,2.63,0,0,0,3,.05,1.62,1.62,0,0,0,.11-2.08,2.61,2.61,0,0,0-3.3-.57A1.52,1.52,0,0,0,11.13,16.07Z" transform="translate(-5.07 -6.74)"/><path class="cls-7" d="M11.91,16.07A1.75,1.75,0,0,1,11,17.41a2.63,2.63,0,0,1-3,.05,1.62,1.62,0,0,1-.11-2.08,2.61,2.61,0,0,1,3.3-.57A1.52,1.52,0,0,1,11.91,16.07Z" transform="translate(-5.07 -6.74)"/></g><g id="Layer_3" data-name="Layer 3"><path class="cls-8" d="M14.69,15.44a4,4,0,0,1,1.42.36,4.13,4.13,0,0,1,.9.58" transform="translate(-5.07 -6.74)"/><path class="cls-8" d="M8.73,15.44a3.86,3.86,0,0,0-2.31.94" transform="translate(-5.07 -6.74)"/><path class="cls-8" d="M14.69,15.91a6,6,0,0,1,1.9,1.3" transform="translate(-5.07 -6.74)"/><path class="cls-8" d="M8.73,15.91a6,6,0,0,0-1.9,1.3" transform="translate(-5.07 -6.74)"/><path class="cls-9" d="M12.29,14.7a.92.92,0,0,1-.86.91.77.77,0,0,1-.58-1.31A1,1,0,0,1,12.29,14.7Z" transform="translate(-5.07 -6.74)"/><path class="cls-9" d="M10.64,14.7a.93.93,0,0,0,.86.91.79.79,0,0,0,.74-.47.77.77,0,0,0-.16-.84A1,1,0,0,0,10.64,14.7Z" transform="translate(-5.07 -6.74)"/></g><g id="Layer_5" data-name="Layer 5"><path class="cls-10" d="M11.91,22.34a12.51,12.51,0,0,1,3.39-1.85c1.76-.6,2.15-.23,4.36-1a9.76,9.76,0,0,0,3-1.52A10.82,10.82,0,0,0,24,16.68c1.45-1.57,1.86-2.62,2-2.55s-.24,3.22-2.42,5.77a9.65,9.65,0,0,1-3.27,2.58c-2.12,1-3.13.71-5.73,1.32-4.23,1-6.36,3.09-6.66,2.69S9.77,23.85,11.91,22.34Z" transform="translate(-5.07 -6.74)"/></g></svg>